<svg width="24" height="24" viewBox="0 0 24 24" fill="none" xmlns="http://www.w3.org/2000/svg">
<g id="Frame" clip-path="url(#clip0_202_1289)">
<path id="Vector" d="M21.3334 8.81333V20H2.66676V5.33333H4.66676V4H2.50009C2.34425 4.0026 2.19045 4.03588 2.04747 4.09794C1.90449 4.15999 1.77514 4.24961 1.6668 4.36166C1.55846 4.47371 1.47325 4.60601 1.41605 4.751C1.35885 4.89599 1.33077 5.05083 1.33342 5.20667V20.1267C1.33077 20.2825 1.35885 20.4373 1.41605 20.5823C1.47325 20.7273 1.55846 20.8596 1.6668 20.9717C1.77514 21.0837 1.90449 21.1733 2.04747 21.2354C2.19045 21.2974 2.34425 21.3307 2.50009 21.3333H21.5001C21.6559 21.3307 21.8097 21.2974 21.9527 21.2354C22.0957 21.1733 22.225 21.0837 22.3334 20.9717C22.4417 20.8596 22.5269 20.7273 22.5841 20.5823C22.6413 20.4373 22.6694 20.2825 22.6668 20.1267V8.22667C22.2536 8.48669 21.8043 8.68437 21.3334 8.81333Z" fill="#1E1E1E"/>
<path id="Vector_2" d="M5.33325 9.33334H6.66659V10.6667H5.33325V9.33334Z" fill="#1E1E1E"/>
<path id="Vector_3" d="M9.33325 9.33334H10.6666V10.6667H9.33325V9.33334Z" fill="#1E1E1E"/>
<path id="Vector_4" d="M13.3333 9.33334H14.6666V10.6667H13.3333V9.33334Z" fill="#1E1E1E"/>
<path id="Vector_5" d="M17.3333 9.33334H18.6666V10.6667H17.3333V9.33334Z" fill="#1E1E1E"/>
<path id="Vector_6" d="M5.33325 12.6667H6.66659V14H5.33325V12.6667Z" fill="#1E1E1E"/>
<path id="Vector_7" d="M9.33325 12.6667H10.6666V14H9.33325V12.6667Z" fill="#1E1E1E"/>
<path id="Vector_8" d="M13.3333 12.6667H14.6666V14H13.3333V12.6667Z" fill="#1E1E1E"/>
<path id="Vector_9" d="M17.3333 12.6667H18.6666V14H17.3333V12.6667Z" fill="#1E1E1E"/>
<path id="Vector_10" d="M5.33325 16H6.66659V17.3333H5.33325V16Z" fill="#1E1E1E"/>
<path id="Vector_11" d="M9.33325 16H10.6666V17.3333H9.33325V16Z" fill="#1E1E1E"/>
<path id="Vector_12" d="M13.3333 16H14.6666V17.3333H13.3333V16Z" fill="#1E1E1E"/>
<path id="Vector_13" d="M17.3333 16H18.6666V17.3333H17.3333V16Z" fill="#1E1E1E"/>
<path id="Vector_14" d="M6.66667 6.66668C6.84348 6.66668 7.01305 6.59644 7.13807 6.47141C7.2631 6.34639 7.33333 6.17682 7.33333 6.00001V2.00001C7.33333 1.8232 7.2631 1.65363 7.13807 1.52861C7.01305 1.40358 6.84348 1.33334 6.66667 1.33334C6.48986 1.33334 6.32029 1.40358 6.19526 1.52861C6.07024 1.65363 6 1.8232 6 2.00001V6.00001C6 6.17682 6.07024 6.34639 6.19526 6.47141C6.32029 6.59644 6.48986 6.66668 6.66667 6.66668Z" fill="#1E1E1E"/>
<path id="Vector_15" d="M15.0001 4H8.66675V5.33333H15.1867C15.0646 4.89935 15.0018 4.45083 15.0001 4Z" fill="#1E1E1E"/>
<path id="Vector_16" d="M20.0001 7.33332C21.841 7.33332 23.3334 5.84094 23.3334 3.99999C23.3334 2.15904 21.841 0.666656 20.0001 0.666656C18.1591 0.666656 16.6667 2.15904 16.6667 3.99999C16.6667 5.84094 18.1591 7.33332 20.0001 7.33332Z" fill="#1E1E1E"/>
</g>
<defs>
<clipPath id="clip0_202_1289">
<rect width="24" height="24" fill="white"/>
</clipPath>
</defs>
</svg>
